<svg width="294" height="48" viewBox="0 0 294 48" fill="none" xmlns="http://www.w3.org/2000/svg">
<path d="M3.88889 0.802956H0.122808V47.2315H3.88889V0.802956Z" fill="black"/>
<path d="M7.65497 0.802956H5.77193V47.2315H7.65497V0.802956Z" fill="black"/>
<path d="M13.3041 0.802956H11.4211V47.2315H13.3041V0.802956Z" fill="black"/>
<path d="M22.7193 0.802956H20.8363V47.2315H22.7193V0.802956Z" fill="black"/>
<path d="M34.0175 0.802956H30.2515V47.2315H34.0175V0.802956Z" fill="black"/>
<path d="M39.6667 0.802956H37.7836V47.2315H39.6667V0.802956Z" fill="black"/>
<path d="M43.4328 0.802956H41.5497V47.2315H43.4328V0.802956Z" fill="black"/>
<path d="M56.614 0.802956H49.0819V47.2315H56.614V0.802956Z" fill="black"/>
<path d="M60.3801 0.802956H58.4971V47.2315H60.3801V0.802956Z" fill="black"/>
<path d="M66.0292 0.802956H62.2632V47.2315H66.0292V0.802956Z" fill="black"/>
<path d="M75.4445 0.802956H73.5614V47.2315H75.4445V0.802956Z" fill="black"/>
<path d="M79.2105 0.802956H77.3275V47.2315H79.2105V0.802956Z" fill="black"/>
<path d="M84.8597 0.802956H82.9766V47.2315H84.8597V0.802956Z" fill="black"/>
<path d="M90.5088 0.802956H88.6257V47.2315H90.5088V0.802956Z" fill="black"/>
<path d="M96.1579 0.802956H92.3918V47.2315H96.1579V0.802956Z" fill="black"/>
<path d="M105.573 0.802956H103.69V47.2315H105.573V0.802956Z" fill="black"/>
<path d="M114.988 0.802956H107.456V47.2315H114.988V0.802956Z" fill="black"/>
<path d="M120.637 0.802956H118.754V47.2315H120.637V0.802956Z" fill="black"/>
<path d="M126.287 0.802956H124.404V47.2315H126.287V0.802956Z" fill="black"/>
<path d="M133.819 0.802956H130.053V47.2315H133.819V0.802956Z" fill="black"/>
<path d="M141.351 0.802956H135.702V47.2315H141.351V0.802956Z" fill="black"/>
<path d="M147 0.802956H145.117V47.2315H147V0.802956Z" fill="black"/>
<path d="M152.649 0.802956H148.883V47.2315H152.649V0.802956Z" fill="black"/>
<path d="M162.064 0.802956H160.181V47.2315H162.064V0.802956Z" fill="black"/>
<path d="M167.713 0.802956H165.83V47.2315H167.713V0.802956Z" fill="black"/>
<path d="M180.895 0.802956H173.363V47.2315H180.895V0.802956Z" fill="black"/>
<path d="M184.661 0.802956H182.778V47.2315H184.661V0.802956Z" fill="black"/>
<path d="M190.31 0.802956H186.544V47.2315H190.31V0.802956Z" fill="black"/>
<path d="M199.725 0.802956H197.842V47.2315H199.725V0.802956Z" fill="black"/>
<path d="M205.374 0.802956H203.491V47.2315H205.374V0.802956Z" fill="black"/>
<path d="M209.14 0.802956H207.257V47.2315H209.14V0.802956Z" fill="black"/>
<path d="M218.556 0.802956H216.673V47.2315H218.556V0.802956Z" fill="black"/>
<path d="M224.205 0.802956H220.439V47.2315H224.205V0.802956Z" fill="black"/>
<path d="M231.737 0.802956H227.971V47.2315H231.737V0.802956Z" fill="black"/>
<path d="M237.386 0.802956H233.62V47.2315H237.386V0.802956Z" fill="black"/>
<path d="M246.801 0.802956H239.269V47.2315H246.801V0.802956Z" fill="black"/>
<path d="M252.45 0.802956H248.684V47.2315H252.45V0.802956Z" fill="black"/>
<path d="M258.099 0.802956H254.333V47.2315H258.099V0.802956Z" fill="black"/>
<path d="M267.515 0.802956H263.749V47.2315H267.515V0.802956Z" fill="black"/>
<path d="M273.164 0.802956H269.398V47.2315H273.164V0.802956Z" fill="black"/>
<path d="M284.462 0.802956H278.813V47.2315H284.462V0.802956Z" fill="black"/>
<path d="M288.228 0.802956H286.345V47.2315H288.228V0.802956Z" fill="black"/>
<path d="M293.877 0.802956H290.111V47.2315H293.877V0.802956Z" fill="black"/>
</svg>
